<svg width="42" height="42" viewBox="0 0 42 42" fill="none" xmlns="http://www.w3.org/2000/svg">
<path d="M40.5114 11.743L38.1511 14.8006L37.6577 18.6327L33.826 19.1257L30.7684 21.4861L27.7108 19.1257L23.8791 18.6327L23.3857 14.8006L21.0254 11.743L23.3857 8.68585L23.8791 4.85373L27.7108 4.36077L30.7684 2L33.826 4.36077L37.6577 4.85373L38.1511 8.68585L40.5114 11.743Z" stroke="#40DDB6" stroke-width="2" stroke-miterlimit="10"/>
<path d="M36.069 18.3202V29.8354L30.7689 26.284L25.4688 29.8354V18.3202" stroke="#40DDB6" stroke-width="2" stroke-miterlimit="10"/>
<path d="M22.8881 21.5668C21.2864 23.8273 18.6507 25.2877 15.6959 25.2877C11.0976 25.2877 7.27298 21.751 6.91328 17.1669L5.87891 3.96814H21.7898" stroke="#40DDB6" stroke-width="2" stroke-miterlimit="10"/>
<path d="M6.67245 17.1896H4.46458C3.38466 17.1896 2.4752 16.3817 2.3482 15.3093L1.01512 8.99438C0.864729 7.72689 1.85524 6.6123 3.1315 6.6123H6.07714" stroke="#40DDB6" stroke-width="2" stroke-miterlimit="10"/>
<path d="M17.8672 24.854C17.8672 24.854 18.3301 30.2089 21.1065 32.5884" stroke="#40DDB6" stroke-width="2" stroke-miterlimit="10"/>
<path d="M13.6788 24.854C13.6788 24.854 13.2159 30.2089 10.4395 32.5884" stroke="#40DDB6" stroke-width="2" stroke-miterlimit="10"/>
<path d="M23.9708 36.8744H7.57617V34.4614C7.57617 33.2743 8.46391 32.3123 9.55928 32.3123H21.9873C23.0826 32.3123 23.9704 33.2743 23.9704 34.4614V36.8744H23.9708Z" stroke="#40DDB6" stroke-width="2" stroke-miterlimit="10"/>
<path d="M25.8442 40.1698H5.70312V39.0235C5.70312 37.8364 6.59087 36.8744 7.68624 36.8744H23.8611C24.9565 36.8744 25.8442 37.8364 25.8442 39.0235V40.1698V40.1698Z" stroke="#40DDB6" stroke-width="2" stroke-miterlimit="10"/>
<path d="M5.70265 40.1697H25.8438V39.0234C25.8438 37.8363 24.956 36.8743 23.8606 36.8743H7.68576C6.59039 36.8743 5.70265 37.8363 5.70265 39.0234V40.1697V40.1697Z" stroke="#40DDB6" stroke-width="2" stroke-miterlimit="10"/>
<path d="M26.6367 13.8181L29.1487 15.6692L35.1645 8.00073" stroke="#40DDB6" stroke-width="2" stroke-miterlimit="10"/>
</svg>
