<svg width="216" height="30" viewBox="0 0 216 30" fill="none" xmlns="http://www.w3.org/2000/svg">
<path d="M44.368 21.096C44.144 21.096 43.8987 21.0907 43.632 21.08C43.376 21.0693 43.1147 21.0533 42.848 21.032C42.592 21.0107 42.336 20.984 42.08 20.952C41.824 20.92 41.5893 20.8773 41.376 20.824V10.072C41.5893 10.0187 41.824 9.976 42.08 9.944C42.336 9.912 42.592 9.88533 42.848 9.864C43.1147 9.84267 43.376 9.82667 43.632 9.816C43.888 9.80533 44.128 9.8 44.352 9.8C44.992 9.8 45.5893 9.848 46.144 9.944C46.7093 10.04 47.1947 10.2053 47.6 10.44C48.016 10.664 48.3413 10.9627 48.576 11.336C48.8107 11.7093 48.928 12.168 48.928 12.712C48.928 13.32 48.784 13.8213 48.496 14.216C48.208 14.6 47.824 14.888 47.344 15.08C47.9947 15.272 48.512 15.576 48.896 15.992C49.28 16.408 49.472 16.9947 49.472 17.752C49.472 18.8613 49.0613 19.6987 48.24 20.264C47.4293 20.8187 46.1387 21.096 44.368 21.096ZM42.912 15.832V19.736C43.0293 19.7467 43.168 19.7573 43.328 19.768C43.4667 19.7787 43.6267 19.7893 43.808 19.8C44 19.8 44.2187 19.8 44.464 19.8C44.9227 19.8 45.3547 19.7733 45.76 19.72C46.176 19.656 46.5387 19.5493 46.848 19.4C47.1573 19.2507 47.4027 19.0427 47.584 18.776C47.776 18.5093 47.872 18.1733 47.872 17.768C47.872 17.4053 47.8027 17.1013 47.664 16.856C47.5253 16.6 47.3227 16.3973 47.056 16.248C46.8 16.0987 46.4907 15.992 46.128 15.928C45.7653 15.864 45.36 15.832 44.912 15.832H42.912ZM42.912 14.584H44.544C44.928 14.584 45.2907 14.5573 45.632 14.504C45.9733 14.4507 46.2667 14.3547 46.512 14.216C46.768 14.0773 46.9653 13.896 47.104 13.672C47.2533 13.448 47.328 13.1653 47.328 12.824C47.328 12.504 47.2533 12.2373 47.104 12.024C46.9547 11.8 46.7467 11.624 46.48 11.496C46.224 11.3573 45.92 11.256 45.568 11.192C45.216 11.128 44.8427 11.096 44.448 11.096C44.0533 11.096 43.744 11.1013 43.52 11.112C43.296 11.1227 43.0933 11.1387 42.912 11.16V14.584ZM51.0973 16.856C51.0973 16.12 51.2039 15.48 51.4173 14.936C51.6306 14.3813 51.9133 13.9227 52.2653 13.56C52.6173 13.1973 53.0226 12.9253 53.4813 12.744C53.9399 12.5627 54.4093 12.472 54.8893 12.472C56.0093 12.472 56.8679 12.824 57.4653 13.528C58.0626 14.2213 58.3612 15.2827 58.3612 16.712C58.3612 16.776 58.3612 16.8613 58.3612 16.968C58.3612 17.064 58.3559 17.1547 58.3453 17.24H52.6493C52.7133 18.104 52.9639 18.76 53.4013 19.208C53.8386 19.656 54.5213 19.88 55.4493 19.88C55.9719 19.88 56.4093 19.8373 56.7613 19.752C57.1239 19.656 57.3959 19.5653 57.5773 19.48L57.7853 20.728C57.6039 20.824 57.2839 20.9253 56.8253 21.032C56.3773 21.1387 55.8653 21.192 55.2893 21.192C54.5639 21.192 53.9346 21.0853 53.4013 20.872C52.8786 20.648 52.4466 20.344 52.1053 19.96C51.7639 19.576 51.5079 19.1227 51.3372 18.6C51.1773 18.0667 51.0973 17.4853 51.0973 16.856ZM56.8093 16.04C56.8199 15.368 56.6493 14.8187 56.2973 14.392C55.9559 13.9547 55.4813 13.736 54.8733 13.736C54.5319 13.736 54.2279 13.8053 53.9613 13.944C53.7053 14.072 53.4866 14.2427 53.3053 14.456C53.1239 14.6693 52.9799 14.9147 52.8733 15.192C52.7773 15.4693 52.7133 15.752 52.6813 16.04H56.8093ZM62.4348 19.928C63.0428 19.928 63.4908 19.848 63.7788 19.688C64.0774 19.528 64.2268 19.272 64.2268 18.92C64.2268 18.5573 64.0828 18.2693 63.7948 18.056C63.5068 17.8427 63.0321 17.6027 62.3708 17.336C62.0508 17.208 61.7414 17.08 61.4428 16.952C61.1548 16.8133 60.9041 16.6533 60.6908 16.472C60.4774 16.2907 60.3068 16.072 60.1788 15.816C60.0508 15.56 59.9868 15.2453 59.9868 14.872C59.9868 14.136 60.2588 13.5547 60.8028 13.128C61.3468 12.6907 62.0881 12.472 63.0268 12.472C63.2614 12.472 63.4961 12.488 63.7308 12.52C63.9654 12.5413 64.1841 12.5733 64.3868 12.616C64.5894 12.648 64.7654 12.6853 64.9148 12.728C65.0748 12.7707 65.1974 12.808 65.2828 12.84L65.0108 14.12C64.8508 14.0347 64.6001 13.9493 64.2588 13.864C63.9174 13.768 63.5068 13.72 63.0268 13.72C62.6108 13.72 62.2481 13.8053 61.9388 13.976C61.6294 14.136 61.4748 14.392 61.4748 14.744C61.4748 14.9253 61.5068 15.0853 61.5707 15.224C61.6454 15.3627 61.7521 15.4907 61.8908 15.608C62.0401 15.7147 62.2214 15.816 62.4348 15.912C62.6481 16.008 62.9041 16.1093 63.2028 16.216C63.5974 16.3653 63.9494 16.5147 64.2588 16.664C64.5681 16.8027 64.8294 16.968 65.0428 17.16C65.2668 17.352 65.4374 17.5867 65.5548 17.864C65.6721 18.1307 65.7308 18.4613 65.7308 18.856C65.7308 19.624 65.4428 20.2053 64.8668 20.6C64.3014 20.9947 63.4908 21.192 62.4348 21.192C61.6988 21.192 61.1228 21.128 60.7068 21C60.2908 20.8827 60.0081 20.792 59.8588 20.728L60.1308 19.448C60.3014 19.512 60.5734 19.608 60.9468 19.736C61.3201 19.864 61.8161 19.928 62.4348 19.928ZM69.0314 12.68H72.1834V13.928H69.0314V17.768C69.0314 18.184 69.0634 18.5307 69.1274 18.808C69.1914 19.0747 69.2874 19.288 69.4154 19.448C69.5434 19.5973 69.7034 19.704 69.8954 19.768C70.0874 19.832 70.3114 19.864 70.5674 19.864C71.0154 19.864 71.3727 19.816 71.6394 19.72C71.9167 19.6133 72.1087 19.5387 72.2154 19.496L72.5034 20.728C72.354 20.8027 72.0927 20.8933 71.7194 21C71.346 21.1173 70.9194 21.176 70.4394 21.176C69.874 21.176 69.4047 21.1067 69.0314 20.968C68.6687 20.8187 68.3754 20.6 68.1514 20.312C67.9274 20.024 67.7674 19.672 67.6714 19.256C67.586 18.8293 67.5434 18.3387 67.5434 17.784V10.36L69.0314 10.104V12.68ZM77.876 9.912H79.428V21H77.876V9.912ZM82.0769 12.92C82.4182 12.8347 82.8715 12.744 83.4369 12.648C84.0022 12.552 84.6529 12.504 85.3889 12.504C86.0502 12.504 86.5995 12.6 87.0369 12.792C87.4742 12.9733 87.8209 13.2347 88.0769 13.576C88.3435 13.9067 88.5302 14.3067 88.6369 14.776C88.7435 15.2453 88.7969 15.7627 88.7969 16.328V21H87.3089V16.648C87.3089 16.136 87.2715 15.6987 87.1969 15.336C87.1329 14.9733 87.0209 14.68 86.8609 14.456C86.7009 14.232 86.4875 14.072 86.2209 13.976C85.9542 13.8693 85.6235 13.816 85.2289 13.816C85.0689 13.816 84.9035 13.8213 84.7329 13.832C84.5622 13.8427 84.3969 13.8587 84.2369 13.88C84.0875 13.8907 83.9489 13.9067 83.8209 13.928C83.7035 13.9493 83.6182 13.9653 83.5649 13.976V21H82.0769V12.92ZM102.472 9.912V11.256H98.9835V21H97.4315V11.256H93.9435V9.912H102.472ZM102.675 16.856C102.675 16.12 102.782 15.48 102.995 14.936C103.209 14.3813 103.491 13.9227 103.843 13.56C104.195 13.1973 104.601 12.9253 105.059 12.744C105.518 12.5627 105.987 12.472 106.467 12.472C107.587 12.472 108.446 12.824 109.043 13.528C109.641 14.2213 109.939 15.2827 109.939 16.712C109.939 16.776 109.939 16.8613 109.939 16.968C109.939 17.064 109.934 17.1547 109.923 17.24H104.227C104.291 18.104 104.542 18.76 104.979 19.208C105.417 19.656 106.099 19.88 107.027 19.88C107.55 19.88 107.987 19.8373 108.339 19.752C108.702 19.656 108.974 19.5653 109.155 19.48L109.363 20.728C109.182 20.824 108.862 20.9253 108.403 21.032C107.955 21.1387 107.443 21.192 106.867 21.192C106.142 21.192 105.513 21.0853 104.979 20.872C104.457 20.648 104.025 20.344 103.683 19.96C103.342 19.576 103.086 19.1227 102.915 18.6C102.755 18.0667 102.675 17.4853 102.675 16.856ZM108.387 16.04C108.398 15.368 108.227 14.8187 107.875 14.392C107.534 13.9547 107.059 13.736 106.451 13.736C106.11 13.736 105.806 13.8053 105.539 13.944C105.283 14.072 105.065 14.2427 104.883 14.456C104.702 14.6693 104.558 14.9147 104.451 15.192C104.355 15.4693 104.291 15.752 104.259 16.04H108.387ZM115.693 21.192C115.021 21.192 114.429 21.0853 113.917 20.872C113.416 20.6587 112.989 20.36 112.637 19.976C112.296 19.592 112.04 19.1387 111.869 18.616C111.698 18.0827 111.613 17.496 111.613 16.856C111.613 16.216 111.704 15.6293 111.885 15.096C112.077 14.5627 112.344 14.104 112.685 13.72C113.026 13.3253 113.442 13.0213 113.933 12.808C114.434 12.584 114.989 12.472 115.597 12.472C115.97 12.472 116.344 12.504 116.717 12.568C117.09 12.632 117.448 12.7333 117.789 12.872L117.453 14.136C117.229 14.0293 116.968 13.944 116.669 13.88C116.381 13.816 116.072 13.784 115.741 13.784C114.909 13.784 114.269 14.0453 113.821 14.568C113.384 15.0907 113.165 15.8533 113.165 16.856C113.165 17.304 113.213 17.7147 113.309 18.088C113.416 18.4613 113.576 18.7813 113.789 19.048C114.013 19.3147 114.296 19.5227 114.637 19.672C114.978 19.8107 115.394 19.88 115.885 19.88C116.28 19.88 116.637 19.8427 116.957 19.768C117.277 19.6933 117.528 19.6133 117.709 19.528L117.917 20.776C117.832 20.8293 117.709 20.8827 117.549 20.936C117.389 20.9787 117.208 21.016 117.005 21.048C116.802 21.0907 116.584 21.1227 116.349 21.144C116.125 21.176 115.906 21.192 115.693 21.192ZM119.514 21V8.84L121.002 8.584V12.84C121.28 12.7333 121.573 12.6533 121.882 12.6C122.202 12.536 122.517 12.504 122.826 12.504C123.488 12.504 124.037 12.6 124.474 12.792C124.912 12.9733 125.258 13.2347 125.514 13.576C125.781 13.9067 125.968 14.3067 126.074 14.776C126.181 15.2453 126.234 15.7627 126.234 16.328V21H124.746V16.648C124.746 16.136 124.709 15.6987 124.634 15.336C124.57 14.9733 124.458 14.68 124.298 14.456C124.138 14.232 123.925 14.072 123.658 13.976C123.392 13.8693 123.061 13.816 122.666 13.816C122.506 13.816 122.341 13.8267 122.17 13.848C122 13.8693 121.834 13.896 121.674 13.928C121.525 13.9493 121.386 13.976 121.258 14.008C121.141 14.04 121.056 14.0667 121.002 14.088V21H119.514ZM132.454 9.912H134.006V21H132.454V9.912ZM136.655 12.92C136.996 12.8347 137.45 12.744 138.015 12.648C138.58 12.552 139.231 12.504 139.967 12.504C140.628 12.504 141.178 12.6 141.615 12.792C142.052 12.9733 142.399 13.2347 142.655 13.576C142.922 13.9067 143.108 14.3067 143.215 14.776C143.322 15.2453 143.375 15.7627 143.375 16.328V21H141.887V16.648C141.887 16.136 141.85 15.6987 141.775 15.336C141.711 14.9733 141.599 14.68 141.439 14.456C141.279 14.232 141.066 14.072 140.799 13.976C140.532 13.8693 140.202 13.816 139.807 13.816C139.647 13.816 139.482 13.8213 139.311 13.832C139.14 13.8427 138.975 13.8587 138.815 13.88C138.666 13.8907 138.527 13.9067 138.399 13.928C138.282 13.9493 138.196 13.9653 138.143 13.976V21H136.655V12.92ZM145.843 12.92C146.184 12.8347 146.637 12.744 147.203 12.648C147.768 12.552 148.419 12.504 149.155 12.504C149.816 12.504 150.365 12.6 150.803 12.792C151.24 12.9733 151.587 13.2347 151.843 13.576C152.109 13.9067 152.296 14.3067 152.403 14.776C152.509 15.2453 152.562 15.7627 152.562 16.328V21H151.075V16.648C151.075 16.136 151.037 15.6987 150.963 15.336C150.899 14.9733 150.787 14.68 150.627 14.456C150.467 14.232 150.253 14.072 149.987 13.976C149.72 13.8693 149.389 13.816 148.995 13.816C148.835 13.816 148.669 13.8213 148.499 13.832C148.328 13.8427 148.163 13.8587 148.003 13.88C147.853 13.8907 147.715 13.9067 147.587 13.928C147.469 13.9493 147.384 13.9653 147.331 13.976V21H145.843V12.92ZM162.374 16.84C162.374 17.5013 162.278 18.0987 162.086 18.632C161.894 19.1653 161.622 19.624 161.27 20.008C160.929 20.392 160.518 20.6907 160.038 20.904C159.558 21.1067 159.035 21.208 158.47 21.208C157.905 21.208 157.382 21.1067 156.902 20.904C156.422 20.6907 156.006 20.392 155.654 20.008C155.313 19.624 155.046 19.1653 154.854 18.632C154.662 18.0987 154.566 17.5013 154.566 16.84C154.566 16.1893 154.662 15.5973 154.854 15.064C155.046 14.52 155.313 14.056 155.654 13.672C156.006 13.288 156.422 12.9947 156.902 12.792C157.382 12.5787 157.905 12.472 158.47 12.472C159.035 12.472 159.558 12.5787 160.038 12.792C160.518 12.9947 160.929 13.288 161.27 13.672C161.622 14.056 161.894 14.52 162.086 15.064C162.278 15.5973 162.374 16.1893 162.374 16.84ZM160.822 16.84C160.822 15.9013 160.609 15.16 160.182 14.616C159.766 14.0613 159.195 13.784 158.47 13.784C157.745 13.784 157.169 14.0613 156.742 14.616C156.326 15.16 156.118 15.9013 156.118 16.84C156.118 17.7787 156.326 18.5253 156.742 19.08C157.169 19.624 157.745 19.896 158.47 19.896C159.195 19.896 159.766 19.624 160.182 19.08C160.609 18.5253 160.822 17.7787 160.822 16.84ZM170.745 12.68C170.329 14.2373 169.838 15.7307 169.273 17.16C168.718 18.5893 168.179 19.8693 167.657 21H166.313C165.79 19.8693 165.246 18.5893 164.681 17.16C164.126 15.7307 163.641 14.2373 163.225 12.68H164.825C164.953 13.2027 165.102 13.7627 165.273 14.36C165.454 14.9467 165.641 15.5333 165.833 16.12C166.035 16.696 166.238 17.256 166.441 17.8C166.643 18.344 166.835 18.8293 167.017 19.256C167.198 18.8293 167.39 18.344 167.593 17.8C167.795 17.256 167.993 16.696 168.185 16.12C168.387 15.5333 168.574 14.9467 168.745 14.36C168.926 13.7627 169.081 13.2027 169.209 12.68H170.745ZM175.096 19.928C175.448 19.928 175.757 19.9227 176.024 19.912C176.301 19.8907 176.531 19.8587 176.712 19.816V17.336C176.605 17.2827 176.429 17.24 176.184 17.208C175.949 17.1653 175.661 17.144 175.32 17.144C175.096 17.144 174.856 17.16 174.6 17.192C174.355 17.224 174.125 17.2933 173.912 17.4C173.709 17.496 173.539 17.6347 173.4 17.816C173.261 17.9867 173.192 18.216 173.192 18.504C173.192 19.0373 173.363 19.4107 173.704 19.624C174.045 19.8267 174.509 19.928 175.096 19.928ZM174.968 12.472C175.565 12.472 176.067 12.552 176.472 12.712C176.888 12.8613 177.219 13.08 177.464 13.368C177.72 13.6453 177.901 13.9813 178.008 14.376C178.115 14.76 178.168 15.1867 178.168 15.656V20.856C178.04 20.8773 177.859 20.9093 177.624 20.952C177.4 20.984 177.144 21.016 176.856 21.048C176.568 21.08 176.253 21.1067 175.912 21.128C175.581 21.16 175.251 21.176 174.92 21.176C174.451 21.176 174.019 21.128 173.624 21.032C173.229 20.936 172.888 20.7867 172.6 20.584C172.312 20.3707 172.088 20.0933 171.928 19.752C171.768 19.4107 171.688 19 171.688 18.52C171.688 18.0613 171.779 17.6667 171.96 17.336C172.152 17.0053 172.408 16.7387 172.728 16.536C173.048 16.3333 173.421 16.184 173.848 16.088C174.275 15.992 174.723 15.944 175.192 15.944C175.341 15.944 175.496 15.9547 175.656 15.976C175.816 15.9867 175.965 16.008 176.104 16.04C176.253 16.0613 176.381 16.0827 176.488 16.104C176.595 16.1253 176.669 16.1413 176.712 16.152V15.736C176.712 15.4907 176.685 15.2507 176.632 15.016C176.579 14.7707 176.483 14.5573 176.344 14.376C176.205 14.184 176.013 14.0347 175.768 13.928C175.533 13.8107 175.224 13.752 174.84 13.752C174.349 13.752 173.917 13.7893 173.544 13.864C173.181 13.928 172.909 13.9973 172.728 14.072L172.552 12.84C172.744 12.7547 173.064 12.6747 173.512 12.6C173.96 12.5147 174.445 12.472 174.968 12.472ZM182.031 12.68H185.183V13.928H182.031V17.768C182.031 18.184 182.063 18.5307 182.127 18.808C182.191 19.0747 182.287 19.288 182.415 19.448C182.543 19.5973 182.703 19.704 182.895 19.768C183.087 19.832 183.311 19.864 183.567 19.864C184.015 19.864 184.373 19.816 184.639 19.72C184.917 19.6133 185.109 19.5387 185.215 19.496L185.503 20.728C185.354 20.8027 185.093 20.8933 184.719 21C184.346 21.1173 183.919 21.176 183.439 21.176C182.874 21.176 182.405 21.1067 182.031 20.968C181.669 20.8187 181.375 20.6 181.151 20.312C180.927 20.024 180.767 19.672 180.671 19.256C180.586 18.8293 180.543 18.3387 180.543 17.784V10.36L182.031 10.104V12.68ZM188.565 21H187.077V12.68H188.565V21ZM187.813 11.176C187.546 11.176 187.317 11.0907 187.125 10.92C186.944 10.7387 186.853 10.4987 186.853 10.2C186.853 9.90133 186.944 9.66667 187.125 9.496C187.317 9.31467 187.546 9.224 187.813 9.224C188.08 9.224 188.304 9.31467 188.485 9.496C188.677 9.66667 188.773 9.90133 188.773 10.2C188.773 10.4987 188.677 10.7387 188.485 10.92C188.304 11.0907 188.08 11.176 187.813 11.176ZM198.468 16.84C198.468 17.5013 198.372 18.0987 198.18 18.632C197.988 19.1653 197.716 19.624 197.364 20.008C197.022 20.392 196.612 20.6907 196.132 20.904C195.652 21.1067 195.129 21.208 194.564 21.208C193.998 21.208 193.476 21.1067 192.996 20.904C192.516 20.6907 192.1 20.392 191.748 20.008C191.406 19.624 191.14 19.1653 190.948 18.632C190.756 18.0987 190.66 17.5013 190.66 16.84C190.66 16.1893 190.756 15.5973 190.948 15.064C191.14 14.52 191.406 14.056 191.748 13.672C192.1 13.288 192.516 12.9947 192.996 12.792C193.476 12.5787 193.998 12.472 194.564 12.472C195.129 12.472 195.652 12.5787 196.132 12.792C196.612 12.9947 197.022 13.288 197.364 13.672C197.716 14.056 197.988 14.52 198.18 15.064C198.372 15.5973 198.468 16.1893 198.468 16.84ZM196.916 16.84C196.916 15.9013 196.702 15.16 196.276 14.616C195.86 14.0613 195.289 13.784 194.564 13.784C193.838 13.784 193.262 14.0613 192.836 14.616C192.42 15.16 192.212 15.9013 192.212 16.84C192.212 17.7787 192.42 18.5253 192.836 19.08C193.262 19.624 193.838 19.896 194.564 19.896C195.289 19.896 195.86 19.624 196.276 19.08C196.702 18.5253 196.916 17.7787 196.916 16.84ZM200.561 12.92C200.903 12.8347 201.356 12.744 201.921 12.648C202.487 12.552 203.137 12.504 203.873 12.504C204.535 12.504 205.084 12.6 205.521 12.792C205.959 12.9733 206.305 13.2347 206.561 13.576C206.828 13.9067 207.015 14.3067 207.121 14.776C207.228 15.2453 207.281 15.7627 207.281 16.328V21H205.793V16.648C205.793 16.136 205.756 15.6987 205.681 15.336C205.617 14.9733 205.505 14.68 205.345 14.456C205.185 14.232 204.972 14.072 204.705 13.976C204.439 13.8693 204.108 13.816 203.713 13.816C203.553 13.816 203.388 13.8213 203.217 13.832C203.047 13.8427 202.881 13.8587 202.721 13.88C202.572 13.8907 202.433 13.9067 202.305 13.928C202.188 13.9493 202.103 13.9653 202.049 13.976V21H200.561V12.92ZM211.685 19.928C212.293 19.928 212.741 19.848 213.029 19.688C213.327 19.528 213.477 19.272 213.477 18.92C213.477 18.5573 213.333 18.2693 213.045 18.056C212.757 17.8427 212.282 17.6027 211.621 17.336C211.301 17.208 210.991 17.08 210.693 16.952C210.405 16.8133 210.154 16.6533 209.941 16.472C209.727 16.2907 209.557 16.072 209.429 15.816C209.301 15.56 209.237 15.2453 209.237 14.872C209.237 14.136 209.509 13.5547 210.053 13.128C210.597 12.6907 211.338 12.472 212.277 12.472C212.511 12.472 212.746 12.488 212.981 12.52C213.215 12.5413 213.434 12.5733 213.637 12.616C213.839 12.648 214.015 12.6853 214.165 12.728C214.325 12.7707 214.447 12.808 214.533 12.84L214.261 14.12C214.101 14.0347 213.85 13.9493 213.509 13.864C213.167 13.768 212.757 13.72 212.277 13.72C211.861 13.72 211.498 13.8053 211.189 13.976C210.879 14.136 210.725 14.392 210.725 14.744C210.725 14.9253 210.757 15.0853 210.821 15.224C210.895 15.3627 211.002 15.4907 211.141 15.608C211.29 15.7147 211.471 15.816 211.685 15.912C211.898 16.008 212.154 16.1093 212.453 16.216C212.847 16.3653 213.199 16.5147 213.509 16.664C213.818 16.8027 214.079 16.968 214.293 17.16C214.517 17.352 214.687 17.5867 214.805 17.864C214.922 18.1307 214.981 18.4613 214.981 18.856C214.981 19.624 214.693 20.2053 214.117 20.6C213.551 20.9947 212.741 21.192 211.685 21.192C210.949 21.192 210.373 21.128 209.957 21C209.541 20.8827 209.258 20.792 209.109 20.728L209.381 19.448C209.551 19.512 209.823 19.608 210.197 19.736C210.57 19.864 211.066 19.928 211.685 19.928Z" fill="#593FFB"/>
<path opacity="0.4" d="M13.4371 3.06249C14.2996 2.32499 15.7121 2.32499 16.5871 3.06249L18.5621 4.76249C18.9371 5.08749 19.6371 5.34999 20.1371 5.34999H22.2621C23.5871 5.34999 24.6746 6.43749 24.6746 7.76249V9.88749C24.6746 10.375 24.9371 11.0875 25.2621 11.4625L26.9621 13.4375C27.6996 14.3 27.6996 15.7125 26.9621 16.5875L25.2621 18.5625C24.9371 18.9375 24.6746 19.6375 24.6746 20.1375V22.2625C24.6746 23.5875 23.5871 24.675 22.2621 24.675H20.1371C19.6496 24.675 18.9371 24.9375 18.5621 25.2625L16.5871 26.9625C15.7246 27.7 14.3121 27.7 13.4371 26.9625L11.4621 25.2625C11.0871 24.9375 10.3871 24.675 9.88711 24.675H7.72461C6.39961 24.675 5.31211 23.5875 5.31211 22.2625V20.125C5.31211 19.6375 5.04961 18.9375 4.73711 18.5625L3.04961 16.575C2.32461 15.7125 2.32461 14.3125 3.04961 13.45L4.73711 11.4625C5.04961 11.0875 5.31211 10.3875 5.31211 9.89999V7.74999C5.31211 6.42499 6.39961 5.33749 7.72461 5.33749H9.88711C10.3746 5.33749 11.0871 5.07499 11.4621 4.74999L13.4371 3.06249Z" fill="#593FFB"/>
<path d="M13.4867 18.9625C13.2367 18.9625 12.9992 18.8625 12.8242 18.6875L9.79922 15.6625C9.43672 15.3 9.43672 14.7 9.79922 14.3375C10.1617 13.975 10.7617 13.975 11.1242 14.3375L13.4867 16.7L18.8617 11.325C19.2242 10.9625 19.8242 10.9625 20.1867 11.325C20.5492 11.6875 20.5492 12.2875 20.1867 12.65L14.1492 18.6875C13.9742 18.8625 13.7367 18.9625 13.4867 18.9625Z" fill="#593FFB"/>
</svg>
