<svg width="21" height="16" viewBox="0 0 21 16" fill="none" xmlns="http://www.w3.org/2000/svg">
<path d="M18.301 3.99704C18.314 4.17204 18.314 4.34604 18.314 4.52004C18.314 9.84504 14.261 15.981 6.85397 15.981C4.57197 15.981 2.45197 15.32 0.667969 14.172C0.991969 14.209 1.30397 14.222 1.64097 14.222C3.52397 14.222 5.25697 13.586 6.64197 12.501C4.87097 12.464 3.38697 11.304 2.87497 9.70804C3.12397 9.74504 3.37397 9.77004 3.63597 9.77004C3.99697 9.77004 4.35997 9.72004 4.69697 9.63304C2.84997 9.25904 1.46697 7.63804 1.46697 5.68004V5.63004C2.00397 5.92904 2.62697 6.11604 3.28697 6.14104C2.20197 5.41904 1.49097 4.18404 1.49097 2.78704C1.49097 2.03904 1.68997 1.35304 2.03897 0.755043C4.02197 3.19804 7.00297 4.79504 10.345 4.97004C10.283 4.67004 10.245 4.35904 10.245 4.04704C10.245 1.82704 12.041 0.019043 14.273 0.019043C15.433 0.019043 16.48 0.505043 17.216 1.29104C18.126 1.11604 18.998 0.779043 19.772 0.318043C19.473 1.25304 18.836 2.03904 18.001 2.53804C18.812 2.45004 19.598 2.22604 20.32 1.91404C19.772 2.71204 19.087 3.42304 18.301 3.99704Z" fill="white"/>
</svg>
