<svg width="33" height="27" viewBox="0 0 33 27" fill="none" xmlns="http://www.w3.org/2000/svg">
<path d="M3.5 26.5C2.60625 26.5 1.84142 26.182 1.2055 25.5461C0.569583 24.9102 0.251083 24.1448 0.25 23.25V3.75C0.25 2.85625 0.5685 2.09142 1.2055 1.4555C1.8425 0.819583 2.60733 0.501083 3.5 0.5H29.5C30.3937 0.5 31.1591 0.8185 31.7961 1.4555C32.4331 2.0925 32.7511 2.85733 32.75 3.75V23.25C32.75 24.1437 32.432 24.9091 31.7961 25.5461C31.1602 26.1831 30.3948 26.5011 29.5 26.5H3.5ZM16.5 15.125L29.5 7V3.75L16.5 11.875L3.5 3.75V7L16.5 15.125Z" fill="#593FFB"/>
</svg>
