<svg width="42" height="41" viewBox="0 0 42 41" fill="none" xmlns="http://www.w3.org/2000/svg">
<path d="M27.4109 39.8797H12.3425C9.59884 39.8797 7.375 37.6554 7.375 34.9122V10.3888" stroke="#40DDB6" stroke-width="2" stroke-miterlimit="10"/>
<path d="M4.02734 1H29.4983C32.1688 1 34.3336 3.16482 34.3336 5.83527V16.7142" stroke="#40DDB6" stroke-width="2" stroke-miterlimit="10"/>
<path d="M7.35844 9.54419H1V4.17943C1 2.42354 2.42354 1 4.17943 1C5.93531 1 7.35885 2.42354 7.35885 4.17943V9.54419H7.35844Z" stroke="#40DDB6" stroke-width="2" stroke-miterlimit="10"/>
<path d="M40.1177 25.6534L38.6892 27.7935L38.1856 30.3175L35.6621 30.8206L33.522 32.2491L31.3818 30.8206L28.8579 30.3175L28.3548 27.7935L26.9258 25.6534L28.3548 23.5133L28.8579 20.9893L31.3818 20.4862L33.522 19.0576L35.6621 20.4862L38.1856 20.9893L38.6892 23.5133L40.1177 25.6534Z" stroke="#40DDB6" stroke-width="2" stroke-miterlimit="10"/>
<path d="M37.1649 30.1741V38.9501L33.5221 36.5095L29.8789 38.9501V30.1741" stroke="#40DDB6" stroke-width="2" stroke-miterlimit="10"/>
<path d="M13.998 8.33533H25.9866" stroke="#40DDB6" stroke-width="2" stroke-miterlimit="10"/>
<path d="M13.998 14.4954H25.9866" stroke="#40DDB6" stroke-width="2" stroke-miterlimit="10"/>
<path d="M13.998 20.5889H25.9866" stroke="#40DDB6" stroke-width="2" stroke-miterlimit="10"/>
<path d="M13.998 26.5499H21.9462" stroke="#40DDB6" stroke-width="2" stroke-miterlimit="10"/>
<path d="M13.998 32.6434H21.9462" stroke="#40DDB6" stroke-width="2" stroke-miterlimit="10"/>
</svg>
