<svg width="18" height="18" viewBox="0 0 18 18" fill="none" xmlns="http://www.w3.org/2000/svg">
<path d="M12.3851 2.18393C13.3284 2.18664 14.2324 2.54872 14.8994 3.19107C15.5665 3.83343 15.9425 4.70388 15.9453 5.61231V12.4683C15.9425 13.3768 15.5665 14.2472 14.8994 14.8896C14.2324 15.5319 13.3284 15.894 12.3851 15.8967H5.26536C4.32199 15.894 3.41806 15.5319 2.751 14.8896C2.08393 14.2472 1.70793 13.3768 1.70512 12.4683V5.61231C1.70793 4.70388 2.08393 3.83343 2.751 3.19107C3.41806 2.54872 4.32199 2.18664 5.26536 2.18393H12.3851ZM12.3851 0.812798H5.26536C2.52404 0.812798 0.28125 2.97252 0.28125 5.61231V12.4683C0.28125 15.1081 2.52404 17.2678 5.26536 17.2678H12.3851C15.1264 17.2678 17.3692 15.1081 17.3692 12.4683V5.61231C17.3692 2.97252 15.1264 0.812798 12.3851 0.812798Z" fill="#40DDB6"/>
<path d="M13.4526 5.61235C13.2413 5.61235 13.0349 5.55204 12.8592 5.43903C12.6836 5.32603 12.5467 5.1654 12.4659 4.97748C12.385 4.78956 12.3639 4.58277 12.4051 4.38328C12.4463 4.18378 12.548 4.00053 12.6974 3.8567C12.8467 3.71287 13.037 3.61492 13.2442 3.57523C13.4514 3.53555 13.6661 3.55592 13.8613 3.63376C14.0564 3.7116 14.2232 3.84342 14.3406 4.01254C14.4579 4.18167 14.5206 4.38051 14.5206 4.58391C14.5209 4.71905 14.4934 4.85292 14.4399 4.97782C14.3863 5.10273 14.3077 5.21622 14.2084 5.31178C14.1092 5.40734 13.9913 5.48308 13.8616 5.53466C13.7319 5.58624 13.5929 5.61265 13.4526 5.61235ZM8.82472 6.29774C9.38802 6.29774 9.93868 6.45859 10.407 6.75995C10.8754 7.06132 11.2405 7.48966 11.456 7.99081C11.6716 8.49196 11.728 9.04341 11.6181 9.57543C11.5082 10.1074 11.237 10.5961 10.8386 10.9797C10.4403 11.3633 9.93284 11.6245 9.38036 11.7303C8.82788 11.8361 8.25522 11.7818 7.73479 11.5742C7.21437 11.3666 6.76955 11.0151 6.4566 10.5641C6.14364 10.1131 5.9766 9.58281 5.9766 9.04037C5.97741 8.31321 6.27774 7.61607 6.81169 7.10189C7.34564 6.58772 8.0696 6.29851 8.82472 6.29774ZM8.82472 4.92661C7.9798 4.92661 7.15386 5.16787 6.45133 5.6199C5.74881 6.07192 5.20126 6.71441 4.87792 7.4661C4.55459 8.21779 4.46999 9.04493 4.63482 9.84292C4.79966 10.6409 5.20652 11.3739 5.80397 11.9492C6.40142 12.5246 7.16261 12.9164 7.9913 13.0751C8.81998 13.2338 9.67893 13.1523 10.4595 12.841C11.2401 12.5296 11.9073 12.0024 12.3767 11.3259C12.8462 10.6493 13.0967 9.85399 13.0967 9.04037C13.0967 7.94933 12.6466 6.90298 11.8455 6.1315C11.0443 5.36002 9.95772 4.92661 8.82472 4.92661Z" fill="#40DDB6"/>
</svg>
