<svg width="27" height="38" viewBox="0 0 27 38" fill="none" xmlns="http://www.w3.org/2000/svg">
<path fill-rule="evenodd" clip-rule="evenodd" d="M13.5 0.5625C10.1019 0.5625 6.843 1.91238 4.44019 4.31519C2.03738 6.718 0.6875 9.97691 0.6875 13.375C0.6875 16.2963 2.1225 19.7505 4.21606 23.4559C6.33525 27.2048 9.2565 31.4176 12.4571 35.9019L13.5 37.3626L14.5429 35.9019C17.7461 31.4176 20.6648 27.2048 22.7839 23.4559C24.8775 19.7505 26.3125 16.2963 26.3125 13.375C26.3125 11.6924 25.9811 10.0264 25.3372 8.47187C24.6933 6.91738 23.7496 5.50494 22.5598 4.31519C21.3701 3.12544 19.9576 2.18168 18.4031 1.53779C16.8486 0.893905 15.1826 0.5625 13.5 0.5625ZM13.5 6.96875C11.801 6.96875 10.1715 7.64369 8.9701 8.8451C7.76869 10.0465 7.09375 11.676 7.09375 13.375C7.09375 15.074 7.76869 16.7035 8.9701 17.9049C10.1715 19.1063 11.801 19.7812 13.5 19.7812C15.199 19.7812 16.8285 19.1063 18.0299 17.9049C19.2313 16.7035 19.9062 15.074 19.9062 13.375C19.9062 11.676 19.2313 10.0465 18.0299 8.8451C16.8285 7.64369 15.199 6.96875 13.5 6.96875Z" fill="white"/>
</svg>
