<svg width="17" height="23" viewBox="0 0 17 23" fill="none" xmlns="http://www.w3.org/2000/svg">
<path fill-rule="evenodd" clip-rule="evenodd" d="M8.5 0.5625C6.428 0.5625 4.44086 1.3856 2.97573 2.85073C1.5106 4.31586 0.6875 6.303 0.6875 8.375C0.6875 10.1563 1.5625 12.2625 2.83906 14.5219C4.13125 16.8078 5.9125 19.3766 7.86406 22.1109L8.5 23.0016L9.13594 22.1109C11.0891 19.3766 12.8688 16.8078 14.1609 14.5219C15.4375 12.2625 16.3125 10.1563 16.3125 8.375C16.3125 7.34905 16.1104 6.33314 15.7178 5.38529C15.3252 4.43743 14.7497 3.57619 14.0243 2.85073C13.2988 2.12527 12.4376 1.54981 11.4897 1.15719C10.5419 0.764576 9.52595 0.5625 8.5 0.5625ZM8.5 4.46875C7.464 4.46875 6.47043 4.8803 5.73786 5.61286C5.0053 6.34543 4.59375 7.339 4.59375 8.375C4.59375 9.411 5.0053 10.4046 5.73786 11.1371C6.47043 11.8697 7.464 12.2813 8.5 12.2813C9.536 12.2813 10.5296 11.8697 11.2621 11.1371C11.9947 10.4046 12.4062 9.411 12.4062 8.375C12.4062 7.339 11.9947 6.34543 11.2621 5.61286C10.5296 4.8803 9.536 4.46875 8.5 4.46875Z" fill="white"/>
</svg>
