<svg width="181" height="39" viewBox="0 0 181 39" fill="none" xmlns="http://www.w3.org/2000/svg">
<path d="M52.25 28.5H47.975L40.825 17.675V28.5H36.55V10.95H40.825L47.975 21.825V10.95H52.25V28.5ZM68.4988 21.3C68.4988 21.7 68.4738 22.1167 68.4238 22.55H58.7488C58.8155 23.4167 59.0905 24.0833 59.5738 24.55C60.0738 25 60.6822 25.225 61.3988 25.225C62.4655 25.225 63.2072 24.775 63.6238 23.875H68.1738C67.9405 24.7917 67.5155 25.6167 66.8988 26.35C66.2988 27.0833 65.5405 27.6583 64.6238 28.075C63.7072 28.4917 62.6822 28.7 61.5488 28.7C60.1822 28.7 58.9655 28.4083 57.8988 27.825C56.8322 27.2417 55.9988 26.4083 55.3988 25.325C54.7988 24.2417 54.4988 22.975 54.4988 21.525C54.4988 20.075 54.7905 18.8083 55.3738 17.725C55.9738 16.6417 56.8072 15.8083 57.8738 15.225C58.9405 14.6417 60.1655 14.35 61.5488 14.35C62.8988 14.35 64.0988 14.6333 65.1488 15.2C66.1988 15.7667 67.0155 16.575 67.5988 17.625C68.1988 18.675 68.4988 19.9 68.4988 21.3ZM64.1238 20.175C64.1238 19.4417 63.8738 18.8583 63.3738 18.425C62.8738 17.9917 62.2488 17.775 61.4988 17.775C60.7822 17.775 60.1738 17.9833 59.6738 18.4C59.1905 18.8167 58.8905 19.4083 58.7738 20.175H64.1238ZM78.5291 24.875V28.5H76.3541C74.8041 28.5 73.5958 28.125 72.7291 27.375C71.8624 26.6083 71.4291 25.3667 71.4291 23.65V18.1H69.7291V14.55H71.4291V11.15H75.7041V14.55H78.5041V18.1H75.7041V23.7C75.7041 24.1167 75.8041 24.4167 76.0041 24.6C76.2041 24.7833 76.5374 24.875 77.0041 24.875H78.5291ZM87.1854 24.5L90.2104 14.55H94.7604L89.8104 28.5H84.5354L79.5854 14.55H84.1604L87.1854 24.5ZM98.7098 13.1C97.9598 13.1 97.3431 12.8833 96.8598 12.45C96.3931 12 96.1598 11.45 96.1598 10.8C96.1598 10.1333 96.3931 9.58333 96.8598 9.15C97.3431 8.7 97.9598 8.475 98.7098 8.475C99.4431 8.475 100.043 8.7 100.51 9.15C100.993 9.58333 101.235 10.1333 101.235 10.8C101.235 11.45 100.993 12 100.51 12.45C100.043 12.8833 99.4431 13.1 98.7098 13.1ZM100.835 14.55V28.5H96.5598V14.55H100.835ZM110.283 28.7C108.916 28.7 107.683 28.4083 106.583 27.825C105.499 27.2417 104.641 26.4083 104.008 25.325C103.391 24.2417 103.083 22.975 103.083 21.525C103.083 20.0917 103.399 18.8333 104.033 17.75C104.666 16.65 105.533 15.8083 106.633 15.225C107.733 14.6417 108.966 14.35 110.333 14.35C111.699 14.35 112.933 14.6417 114.033 15.225C115.133 15.8083 115.999 16.65 116.633 17.75C117.266 18.8333 117.583 20.0917 117.583 21.525C117.583 22.9583 117.258 24.225 116.608 25.325C115.974 26.4083 115.099 27.2417 113.983 27.825C112.883 28.4083 111.649 28.7 110.283 28.7ZM110.283 25C111.099 25 111.791 24.7 112.358 24.1C112.941 23.5 113.233 22.6417 113.233 21.525C113.233 20.4083 112.949 19.55 112.383 18.95C111.833 18.35 111.149 18.05 110.333 18.05C109.499 18.05 108.808 18.35 108.258 18.95C107.708 19.5333 107.433 20.3917 107.433 21.525C107.433 22.6417 107.699 23.5 108.233 24.1C108.783 24.7 109.466 25 110.283 25Z" fill="#37393F"/>
<path d="M132.476 10.95V14.375H127.826V28.5H123.551V14.375H118.901V10.95H132.476ZM147.771 21.3C147.771 21.7 147.746 22.1167 147.696 22.55H138.021C138.088 23.4167 138.363 24.0833 138.846 24.55C139.346 25 139.955 25.225 140.671 25.225C141.738 25.225 142.48 24.775 142.896 23.875H147.446C147.213 24.7917 146.788 25.6167 146.171 26.35C145.571 27.0833 144.813 27.6583 143.896 28.075C142.98 28.4917 141.955 28.7 140.821 28.7C139.455 28.7 138.238 28.4083 137.171 27.825C136.105 27.2417 135.271 26.4083 134.671 25.325C134.071 24.2417 133.771 22.975 133.771 21.525C133.771 20.075 134.063 18.8083 134.646 17.725C135.246 16.6417 136.08 15.8083 137.146 15.225C138.213 14.6417 139.438 14.35 140.821 14.35C142.171 14.35 143.371 14.6333 144.421 15.2C145.471 15.7667 146.288 16.575 146.871 17.625C147.471 18.675 147.771 19.9 147.771 21.3ZM143.396 20.175C143.396 19.4417 143.146 18.8583 142.646 18.425C142.146 17.9917 141.521 17.775 140.771 17.775C140.055 17.775 139.446 17.9833 138.946 18.4C138.463 18.8167 138.163 19.4083 138.046 20.175H143.396ZM149.177 21.525C149.177 20.075 149.468 18.8083 150.052 17.725C150.652 16.6417 151.477 15.8083 152.527 15.225C153.593 14.6417 154.81 14.35 156.177 14.35C157.927 14.35 159.385 14.8083 160.552 15.725C161.735 16.6417 162.51 17.9333 162.877 19.6H158.327C157.943 18.5333 157.202 18 156.102 18C155.318 18 154.693 18.3083 154.227 18.925C153.76 19.525 153.527 20.3917 153.527 21.525C153.527 22.6583 153.76 23.5333 154.227 24.15C154.693 24.75 155.318 25.05 156.102 25.05C157.202 25.05 157.943 24.5167 158.327 23.45H162.877C162.51 25.0833 161.735 26.3667 160.552 27.3C159.368 28.2333 157.91 28.7 156.177 28.7C154.81 28.7 153.593 28.4083 152.527 27.825C151.477 27.2417 150.652 26.4083 150.052 25.325C149.468 24.2417 149.177 22.975 149.177 21.525ZM173.738 14.4C175.338 14.4 176.622 14.9333 177.588 16C178.555 17.05 179.038 18.5 179.038 20.35V28.5H174.788V20.925C174.788 19.9917 174.547 19.2667 174.063 18.75C173.58 18.2333 172.93 17.975 172.113 17.975C171.297 17.975 170.647 18.2333 170.163 18.75C169.68 19.2667 169.438 19.9917 169.438 20.925V28.5H165.163V10H169.438V16.425C169.872 15.8083 170.463 15.3167 171.213 14.95C171.963 14.5833 172.805 14.4 173.738 14.4Z" fill="#593FFB"/>
<path d="M20.7971 17.2174V22.5435L0 2V11.3841L26.6304 37V4.02899H17.2464V13.9203L20.7971 17.2174Z" fill="#593FFB"/>
<path d="M5.83376 21.7826L5.83376 16.9638L26.6309 37L26.6309 28.3768L0.000424186 2.00001L0.000427069 34.971L9.38449 34.971L9.38448 25.0797L5.83376 21.7826Z" fill="#40DDB6"/>
</svg>
