<svg width="25" height="25" viewBox="0 0 25 25" fill="none" xmlns="http://www.w3.org/2000/svg">
<path fill-rule="evenodd" clip-rule="evenodd" d="M12.5 1.5625C10.428 1.5625 8.44086 2.3856 6.97573 3.85073C5.5106 5.31586 4.6875 7.303 4.6875 9.375C4.6875 11.1563 5.5625 13.2625 6.83906 15.5219C8.13125 17.8078 9.9125 20.3766 11.8641 23.1109L12.5 24.0016L13.1359 23.1109C15.0891 20.3766 16.8688 17.8078 18.1609 15.5219C19.4375 13.2625 20.3125 11.1563 20.3125 9.375C20.3125 8.34905 20.1104 7.33314 19.7178 6.38529C19.3252 5.43743 18.7497 4.57619 18.0243 3.85073C17.2988 3.12527 16.4376 2.54981 15.4897 2.15719C14.5419 1.76458 13.526 1.5625 12.5 1.5625ZM12.5 5.46875C11.464 5.46875 10.4704 5.8803 9.73786 6.61286C9.0053 7.34543 8.59375 8.339 8.59375 9.375C8.59375 10.411 9.0053 11.4046 9.73786 12.1371C10.4704 12.8697 11.464 13.2813 12.5 13.2813C13.536 13.2813 14.5296 12.8697 15.2621 12.1371C15.9947 11.4046 16.4062 10.411 16.4062 9.375C16.4062 8.339 15.9947 7.34543 15.2621 6.61286C14.5296 5.8803 13.536 5.46875 12.5 5.46875Z" fill="white"/>
</svg>
