<svg width="39" height="39" viewBox="0 0 39 39" fill="none" xmlns="http://www.w3.org/2000/svg">
<path d="M8.0675 16.9287C11.1275 22.9425 16.0575 27.8512 22.0713 30.9325L26.7463 26.2575C27.32 25.6838 28.17 25.4925 28.9137 25.7475C31.2938 26.5337 33.865 26.9587 36.5 26.9587C37.6688 26.9587 38.625 27.915 38.625 29.0837V36.5C38.625 37.6688 37.6688 38.625 36.5 38.625C16.5462 38.625 0.375 22.4538 0.375 2.5C0.375 1.33125 1.33125 0.375 2.5 0.375H9.9375C11.1062 0.375 12.0625 1.33125 12.0625 2.5C12.0625 5.15625 12.4875 7.70625 13.2737 10.0863C13.5075 10.83 13.3375 11.6588 12.7425 12.2537L8.0675 16.9287Z" fill="#593FFB"/>
</svg>
