<svg width="19" height="18" viewBox="0 0 19 18" fill="none" xmlns="http://www.w3.org/2000/svg">
<path d="M9.44715 0.360733C4.65293 0.360733 0.765625 4.2463 0.765625 9.03838C0.765625 12.5908 2.905 15.6435 5.96291 16.9877C5.93966 16.3834 5.95904 15.6551 6.11406 14.9965C6.28072 14.2915 7.23026 10.2664 7.23026 10.2664C7.23026 10.2664 6.95121 9.71245 6.95121 8.89504C6.95121 7.60889 7.69534 6.64815 8.6255 6.64815C9.41614 6.64815 9.79596 7.24087 9.79596 7.9498C9.79596 8.74396 9.28824 9.92939 9.02857 11.0296C8.81154 11.9516 9.48978 12.6993 10.4006 12.6993C12.0439 12.6993 13.1523 10.588 13.1523 8.08539C13.1523 6.18328 11.8694 4.76154 9.54016 4.76154C6.90858 4.76154 5.26529 6.72563 5.26529 8.91829C5.26529 9.67371 5.49008 10.2083 5.83889 10.619C5.99779 10.8088 6.02105 10.8863 5.96291 11.1032C5.92028 11.262 5.82726 11.6455 5.78463 11.8005C5.72649 12.0213 5.54821 12.0988 5.35055 12.0174C4.13747 11.5216 3.57162 10.1967 3.57162 8.70135C3.57162 6.23751 5.65286 3.28169 9.77658 3.28169C13.0903 3.28169 15.2723 5.67967 15.2723 8.25197C15.2723 11.6572 13.3771 14.1985 10.5866 14.1985C9.64868 14.1985 8.7689 13.691 8.4666 13.1176C8.4666 13.1176 7.96276 15.1166 7.85424 15.504C7.67209 16.1742 7.31165 16.8405 6.98221 17.3635C7.78134 17.5991 8.6101 17.7192 9.44327 17.7199C14.2375 17.7199 18.1248 13.8343 18.1248 9.04226C18.1248 4.25018 14.2414 0.360733 9.44715 0.360733Z" fill="#40DDB6"/>
</svg>
