<svg width="19" height="16" viewBox="0 0 19 16" fill="none" xmlns="http://www.w3.org/2000/svg">
<path d="M18.7655 2.4524C18.0788 2.75081 17.3521 2.9474 16.6086 3.03598C17.39 2.57841 17.9776 1.85148 18.2613 0.99153C17.5225 1.42353 16.7156 1.72664 15.8751 1.88788C15.5211 1.51696 15.0955 1.22188 14.624 1.02057C14.1524 0.819272 13.6449 0.715955 13.1322 0.716903C11.0565 0.716903 9.3767 2.3723 9.3767 4.41293C9.37523 4.69677 9.40776 4.97977 9.47358 5.25588C7.98514 5.18611 6.52764 4.8064 5.19435 4.14107C3.86105 3.47574 2.68132 2.53942 1.73062 1.39203C1.39709 1.9543 1.2207 2.59583 1.21989 3.24958C1.21989 4.53117 1.88853 5.66401 2.89816 6.32769C2.29998 6.3135 1.71406 6.15517 1.19013 5.86617V5.91194C1.19013 7.70464 2.48699 9.19602 4.20341 9.53549C3.88064 9.62154 3.54803 9.66513 3.21399 9.66518C2.97696 9.66559 2.74047 9.64259 2.50796 9.59652C2.98513 11.065 4.37391 12.133 6.019 12.1635C4.68224 13.1937 3.04105 13.7505 1.35338 13.7464C1.05382 13.746 0.754531 13.7282 0.457031 13.693C2.1739 14.7894 4.16963 15.3692 6.20666 15.3637C13.1242 15.3637 16.9034 9.73002 16.9034 4.84394C16.9034 4.68374 16.8992 4.52354 16.8916 4.36716C17.6251 3.84539 18.2597 3.19698 18.7655 2.4524Z" fill="#40DDB6"/>
</svg>
