<svg width="25" height="21" viewBox="0 0 25 21" fill="none" xmlns="http://www.w3.org/2000/svg">
<path d="M2.83268 20.1668C2.1681 20.1668 1.59938 19.9304 1.12652 19.4575C0.653655 18.9847 0.416821 18.4156 0.416016 17.7502V3.25016C0.416016 2.58558 0.652849 2.01686 1.12652 1.544C1.60018 1.07113 2.1689 0.834302 2.83268 0.833496H22.166C22.8306 0.833496 23.3997 1.07033 23.8734 1.544C24.3471 2.01766 24.5835 2.58639 24.5827 3.25016V17.7502C24.5827 18.4147 24.3463 18.9839 23.8734 19.4575C23.4005 19.9312 22.8314 20.1676 22.166 20.1668H2.83268ZM12.4993 11.7085L22.166 5.66683V3.25016L12.4993 9.29183L2.83268 3.25016V5.66683L12.4993 11.7085Z" fill="white"/>
</svg>
