<svg width="181" height="38" viewBox="0 0 181 38" fill="none" xmlns="http://www.w3.org/2000/svg">
<path d="M52.25 28H47.975L40.825 17.175V28H36.55V10.45H40.825L47.975 21.325V10.45H52.25V28ZM68.4988 20.8C68.4988 21.2 68.4738 21.6167 68.4238 22.05H58.7488C58.8155 22.9167 59.0905 23.5833 59.5738 24.05C60.0738 24.5 60.6822 24.725 61.3988 24.725C62.4655 24.725 63.2072 24.275 63.6238 23.375H68.1738C67.9405 24.2917 67.5155 25.1167 66.8988 25.85C66.2988 26.5833 65.5405 27.1583 64.6238 27.575C63.7072 27.9917 62.6822 28.2 61.5488 28.2C60.1822 28.2 58.9655 27.9083 57.8988 27.325C56.8322 26.7417 55.9988 25.9083 55.3988 24.825C54.7988 23.7417 54.4988 22.475 54.4988 21.025C54.4988 19.575 54.7905 18.3083 55.3738 17.225C55.9738 16.1417 56.8072 15.3083 57.8738 14.725C58.9405 14.1417 60.1655 13.85 61.5488 13.85C62.8988 13.85 64.0988 14.1333 65.1488 14.7C66.1988 15.2667 67.0155 16.075 67.5988 17.125C68.1988 18.175 68.4988 19.4 68.4988 20.8ZM64.1238 19.675C64.1238 18.9417 63.8738 18.3583 63.3738 17.925C62.8738 17.4917 62.2488 17.275 61.4988 17.275C60.7822 17.275 60.1738 17.4833 59.6738 17.9C59.1905 18.3167 58.8905 18.9083 58.7738 19.675H64.1238ZM78.5291 24.375V28H76.3541C74.8041 28 73.5958 27.625 72.7291 26.875C71.8624 26.1083 71.4291 24.8667 71.4291 23.15V17.6H69.7291V14.05H71.4291V10.65H75.7041V14.05H78.5041V17.6H75.7041V23.2C75.7041 23.6167 75.8041 23.9167 76.0041 24.1C76.2041 24.2833 76.5374 24.375 77.0041 24.375H78.5291ZM87.1854 24L90.2104 14.05H94.7604L89.8104 28H84.5354L79.5854 14.05H84.1604L87.1854 24ZM98.7098 12.6C97.9598 12.6 97.3431 12.3833 96.8598 11.95C96.3931 11.5 96.1598 10.95 96.1598 10.3C96.1598 9.63333 96.3931 9.08333 96.8598 8.65C97.3431 8.2 97.9598 7.975 98.7098 7.975C99.4431 7.975 100.043 8.2 100.51 8.65C100.993 9.08333 101.235 9.63333 101.235 10.3C101.235 10.95 100.993 11.5 100.51 11.95C100.043 12.3833 99.4431 12.6 98.7098 12.6ZM100.835 14.05V28H96.5598V14.05H100.835ZM110.283 28.2C108.916 28.2 107.683 27.9083 106.583 27.325C105.499 26.7417 104.641 25.9083 104.008 24.825C103.391 23.7417 103.083 22.475 103.083 21.025C103.083 19.5917 103.399 18.3333 104.033 17.25C104.666 16.15 105.533 15.3083 106.633 14.725C107.733 14.1417 108.966 13.85 110.333 13.85C111.699 13.85 112.933 14.1417 114.033 14.725C115.133 15.3083 115.999 16.15 116.633 17.25C117.266 18.3333 117.583 19.5917 117.583 21.025C117.583 22.4583 117.258 23.725 116.608 24.825C115.974 25.9083 115.099 26.7417 113.983 27.325C112.883 27.9083 111.649 28.2 110.283 28.2ZM110.283 24.5C111.099 24.5 111.791 24.2 112.358 23.6C112.941 23 113.233 22.1417 113.233 21.025C113.233 19.9083 112.949 19.05 112.383 18.45C111.833 17.85 111.149 17.55 110.333 17.55C109.499 17.55 108.808 17.85 108.258 18.45C107.708 19.0333 107.433 19.8917 107.433 21.025C107.433 22.1417 107.699 23 108.233 23.6C108.783 24.2 109.466 24.5 110.283 24.5ZM132.476 10.45V13.875H127.826V28H123.551V13.875H118.901V10.45H132.476ZM147.771 20.8C147.771 21.2 147.746 21.6167 147.696 22.05H138.021C138.088 22.9167 138.363 23.5833 138.846 24.05C139.346 24.5 139.955 24.725 140.671 24.725C141.738 24.725 142.48 24.275 142.896 23.375H147.446C147.213 24.2917 146.788 25.1167 146.171 25.85C145.571 26.5833 144.813 27.1583 143.896 27.575C142.98 27.9917 141.955 28.2 140.821 28.2C139.455 28.2 138.238 27.9083 137.171 27.325C136.105 26.7417 135.271 25.9083 134.671 24.825C134.071 23.7417 133.771 22.475 133.771 21.025C133.771 19.575 134.063 18.3083 134.646 17.225C135.246 16.1417 136.08 15.3083 137.146 14.725C138.213 14.1417 139.438 13.85 140.821 13.85C142.171 13.85 143.371 14.1333 144.421 14.7C145.471 15.2667 146.288 16.075 146.871 17.125C147.471 18.175 147.771 19.4 147.771 20.8ZM143.396 19.675C143.396 18.9417 143.146 18.3583 142.646 17.925C142.146 17.4917 141.521 17.275 140.771 17.275C140.055 17.275 139.446 17.4833 138.946 17.9C138.463 18.3167 138.163 18.9083 138.046 19.675H143.396ZM149.177 21.025C149.177 19.575 149.468 18.3083 150.052 17.225C150.652 16.1417 151.477 15.3083 152.527 14.725C153.593 14.1417 154.81 13.85 156.177 13.85C157.927 13.85 159.385 14.3083 160.552 15.225C161.735 16.1417 162.51 17.4333 162.877 19.1H158.327C157.943 18.0333 157.202 17.5 156.102 17.5C155.318 17.5 154.693 17.8083 154.227 18.425C153.76 19.025 153.527 19.8917 153.527 21.025C153.527 22.1583 153.76 23.0333 154.227 23.65C154.693 24.25 155.318 24.55 156.102 24.55C157.202 24.55 157.943 24.0167 158.327 22.95H162.877C162.51 24.5833 161.735 25.8667 160.552 26.8C159.368 27.7333 157.91 28.2 156.177 28.2C154.81 28.2 153.593 27.9083 152.527 27.325C151.477 26.7417 150.652 25.9083 150.052 24.825C149.468 23.7417 149.177 22.475 149.177 21.025ZM173.738 13.9C175.338 13.9 176.622 14.4333 177.588 15.5C178.555 16.55 179.038 18 179.038 19.85V28H174.788V20.425C174.788 19.4917 174.547 18.7667 174.063 18.25C173.58 17.7333 172.93 17.475 172.113 17.475C171.297 17.475 170.647 17.7333 170.163 18.25C169.68 18.7667 169.438 19.4917 169.438 20.425V28H165.163V9.5H169.438V15.925C169.872 15.3083 170.463 14.8167 171.213 14.45C171.963 14.0833 172.805 13.9 173.738 13.9Z" fill="white"/>
<path d="M20.7971 16.7174V22.0435L0 1.5V10.8841L26.6304 36.5V3.52899H17.2464V13.4203L20.7971 16.7174Z" fill="white"/>
<path d="M5.83376 21.2826L5.83376 16.4638L26.6309 36.5L26.6309 27.8768L0.000424186 1.50001L0.000427069 34.471L9.38449 34.471L9.38448 24.5797L5.83376 21.2826Z" fill="white"/>
</svg>
